<?xml version="1.0" encoding="UTF-8"?>
<svg width="1200pt" height="1200pt" version="1.1" viewBox="0 0 1200 1200" xmlns="http://www.w3.org/2000/svg">
 <path d="m825 1012.5h-675v56.25c0 14.918 5.9258 29.227 16.477 39.773 10.547 10.551 24.855 16.477 39.773 16.477h637.99c-12.41-16.133-19.168-35.898-19.238-56.25z"/>
 <path d="m450 112.5h525v-37.5h-562.5v168.75c0 4.9727-1.9766 9.7422-5.4922 13.258-3.5156 3.5156-8.2852 5.4922-13.258 5.4922h-168.75v712.5h618.75c4.9727 0 9.7422 1.9766 13.258 5.4922 3.5156 3.5156 5.4922 8.2852 5.4922 13.258v75c0 20.098 10.723 38.664 28.125 48.715 17.402 10.047 38.848 10.047 56.25 0 17.402-10.051 28.125-28.617 28.125-48.715v-618.75h-525zm-112.5 243.75h37.5v37.5h-37.5zm-75-56.25h37.5v37.5h-37.5zm675 187.5v450h-675v-450z"/>
 <path d="m487.5 150v262.5h562.5v-262.5zm187.5 75h-112.5v112.5h75v-37.5h-37.5v-37.5h56.25c4.9727 0 9.7422 1.9766 13.258 5.4922 3.5156 3.5156 5.4922 8.2852 5.4922 13.258v75c0 4.9727-1.9766 9.7422-5.4922 13.258-3.5156 3.5156-8.2852 5.4922-13.258 5.4922h-112.5c-4.9727 0-9.7422-1.9766-13.258-5.4922-3.5156-3.5156-5.4922-8.2852-5.4922-13.258v-150c0-4.9727 1.9766-9.7422 5.4922-13.258 3.5156-3.5156 8.2852-5.4922 13.258-5.4922h131.25zm75 150h-37.5v-187.5h37.5zm187.5-150h-56.25v150h-37.5v-150h-56.25v-37.5h150z"/>
 <path d="m900 525h-600v375h600zm-525 75h-37.5v-37.5h37.5zm24.242 69.508 26.512-26.512 29.758 29.758v-0.003906c8.7266-31.641 27.578-59.555 53.672-79.465s57.992-30.723 90.816-30.785c25.301-1.5273 50.551 3.7188 73.148 15.203 22.594 11.48 41.719 28.785 55.402 50.121l-32.102 19.352c-10.461-15.695-24.906-28.332-41.848-36.621-16.945-8.2891-35.789-11.93-54.602-10.555-24.102 0.03125-47.555 7.7891-66.922 22.133-19.363 14.348-33.617 34.527-40.664 57.574l42.953-21.582 16.762 33.562-87.129 43.633zm345.25 82.742c-8.7266 31.641-27.578 59.555-53.672 79.465s-57.992 30.723-90.816 30.785c-50.398 0.027344-97.828-23.812-127.88-64.273l30.75-21.449v-0.003906c22.922 30.535 58.945 48.422 97.125 48.227 24.102-0.03125 47.555-7.7891 66.922-22.133 19.363-14.348 33.617-34.527 40.664-57.574l-42.953 21.582-16.762-33.562 87.129-43.633 65.812 65.812-26.512 26.512zm118.01 110.25h-75v-37.5h75z"/>
 <path d="m375 101.51-123.49 123.49h123.49z"/>
</svg>
