<svg xmlns="http://www.w3.org/2000/svg" viewBox="0 0 24 24" fill="none" stroke="currentColor" stroke-width="2" stroke-linecap="round" stroke-linejoin="round">
  <!-- Cache refresh arrows -->
  <path d="M21 12a9 9 0 0 0-9-9 9.75 9.75 0 0 0-6.74 2.74L3 8"/>
  <path d="M3 3v5h5"/>
  <path d="M3 12a9 9 0 0 0 9 9 9.75 9.75 0 0 0 6.74-2.74L21 16"/>
  <path d="M16 16h5v5"/>
  <!-- Center cache icon with enterprise indicator -->
  <circle cx="12" cy="12" r="3"/>
  <!-- Enterprise star indicator -->
  <path d="M12 6l.5 1.5H14l-1.2.9.5 1.6-1.3-1-1.3 1 .5-1.6L10 7.5h1.5z" fill="currentColor" stroke="none"/>
</svg>
